<svg height="48" viewBox="0 0 48 48" width="48" xmlns="http://www.w3.org/2000/svg" xmlns:xlink="http://www.w3.org/1999/xlink"><linearGradient id="a" x1="0%" y1="50%" y2="50%"><stop offset="0" stop-color="#0af"/><stop offset="1" stop-color="#0487ff"/></linearGradient><g fill="none" fill-rule="evenodd"><path d="m47.999775 23.999925c0-13.25475-10.7445-24-24-24-13.25475 0-24 10.74525-24 24 0 13.2555 10.74525 24 24 24 13.2555 0 24-10.7445 24-24" fill="url(#a)"/><path d="m16.014975 15.7089 1.4085 4.2405 1.3275 3.999.02625.05175h.0015v.0045l1.3305 2.67.6855 1.3755 2.0175 4.05075h1.29.13275l-.13275-.26325-1.89825-3.7875-2.03175-4.05-.063-.126v-3.92475-4.05075-.159-2.40825-.138-1.34475l.4905 1.48275.8505 2.56725.006.01875 1.3335 4.032 1.2615 3.80625.051.10725.06825.13725 1.24575 2.535.74475 1.515 1.992 4.05075 1.323 2.6925.66825 1.35825h-.66825-1.323-1.887-.84975-.58575-.72825-1.299-1.8555-.8385-.666-.6645-1.29375-2.07225l-.68025-1.3845-1.308-2.66475-.00075-.0015-1.98825-4.05075-1.9905-4.05v-4.05075-4.05075-2.56725-1.48275l.49125 1.48275.849 2.56725.0885.2655 1.251 3.78525 1.29975 3.9285.0405.12225.0405.1245 1.227 2.48475.71175 1.44075 1.9995 4.05075h1.335.12675l-.12675-.25275-1.914-3.798-2.0415-4.05-.09075-.1785v-3.87225-4.05075-.01575-2.5515-.17925-1.3035l.49275 1.48275zm19.513125 20.442675h-4.06725l-.64875-1.3125-1.33575-2.7015-.018-.036-2.00325-4.0515-2.00325-4.05-.03525-.0735v-3.97725-4.05075-.15075-2.4165h12.192l1.30725 2.631v8.03775h-6.04725l-2.0145-4.05075h5.34075v-2.721h-6.7185v2.721 3.9915l.02925.05925 1.3065 2.6355.70125 1.4145 2.00775 4.0515 1.341 2.70675z" fill="#fefefe"/></g></svg>